<?xml version="1.0" standalone="no"?>
<!DOCTYPE svg PUBLIC "-//W3C//DTD SVG 20010904//EN"
 "http://www.w3.org/TR/2001/REC-SVG-20010904/DTD/svg10.dtd">
<svg version="1.0" xmlns="http://www.w3.org/2000/svg"
 width="6978.000000pt" height="3384.000000pt" viewBox="0 0 6978.000000 3384.000000"
 preserveAspectRatio="xMidYMid meet">

<g transform="translate(0.000000,3384.000000) scale(0.100000,-0.100000)"
fill="#000000" stroke="none">
<path d="M26957 33319 c-256 -22 -527 -115 -784 -267 -470 -278 -1045 -854
-1538 -1542 -656 -914 -1254 -2031 -2072 -3870 -351 -790 -385 -878 -1632
-4212 -666 -1780 -1211 -3241 -1211 -3247 0 -8 306 -10 1101 -9 l1101 3 759
2033 c829 2225 764 2064 1024 2527 534 951 1187 1935 1674 2520 158 189 460
494 571 575 226 166 415 196 466 75 19 -46 18 -77 -6 -168 -53 -201 -210 -508
-837 -1636 -736 -1323 -1075 -1962 -1247 -2351 -277 -625 -446 -1187 -522
-1730 -25 -176 -25 -594 -1 -735 110 -633 474 -995 1097 -1091 164 -26 442
-23 605 5 730 127 1518 669 2251 1546 122 147 315 400 398 522 27 40 51 72 52
70 2 -1 10 -59 19 -127 111 -851 525 -1480 1190 -1805 275 -135 537 -201 900
-225 727 -50 1640 241 2460 782 622 410 1231 984 1598 1506 32 45 60 82 61 82
2 0 3 -143 3 -317 -1 -327 9 -487 44 -720 102 -684 390 -1112 851 -1266 377
-126 849 -86 1261 106 473 222 1027 743 1505 1417 53 74 108 149 122 165 14
17 99 145 190 284 l165 254 6 -329 c8 -419 32 -638 99 -905 81 -320 203 -554
384 -735 98 -97 160 -142 282 -203 258 -128 617 -161 968 -90 633 128 1269
645 1945 1579 106 146 378 550 486 722 27 43 50 76 52 75 2 -2 10 -73 18 -158
38 -400 121 -718 265 -1017 109 -226 227 -397 390 -566 116 -120 208 -195 363
-297 301 -197 637 -318 1032 -370 217 -28 560 -31 765 -5 413 51 759 157 1126
345 941 483 1760 1370 2481 2686 688 1256 1013 2322 1015 3325 1 512 -75 889
-251 1255 -202 417 -513 733 -911 924 -360 173 -866 281 -1315 281 -782 0
-1603 -297 -2320 -839 -292 -221 -699 -611 -944 -906 -421 -507 -762 -1055
-1032 -1661 -319 -717 -528 -1382 -629 -2004 -11 -64 -22 -90 -83 -190 -366
-600 -783 -1122 -1066 -1336 -96 -73 -257 -155 -341 -175 -93 -22 -196 -17
-262 13 -147 68 -238 216 -284 463 -26 138 -26 549 0 740 78 578 230 1168 535
2078 l80 237 129 183 c963 1360 1745 2645 2321 3812 516 1045 799 1843 882
2486 18 138 20 199 16 384 -5 236 -17 316 -64 435 -81 201 -208 324 -406 390
-304 102 -645 72 -956 -84 -352 -177 -825 -606 -1214 -1101 -458 -583 -868
-1272 -1352 -2274 -721 -1493 -1263 -2901 -1690 -4391 -154 -539 -309 -1203
-380 -1630 -17 -103 -19 -108 -103 -245 -322 -528 -732 -1054 -990 -1268 -210
-175 -418 -261 -579 -241 -144 19 -272 142 -331 319 -75 223 -87 558 -36 956
63 493 273 1297 543 2076 l68 198 170 240 c1108 1570 1992 3073 2565 4360 432
970 637 1738 615 2300 -19 470 -187 712 -562 812 -90 24 -118 26 -280 27 -194
0 -284 -14 -435 -71 -406 -153 -903 -578 -1371 -1173 -543 -691 -1038 -1565
-1666 -2945 -807 -1772 -1461 -3745 -1733 -5230 l-39 -217 -64 -86 c-35 -48
-90 -125 -123 -172 -71 -102 -393 -433 -557 -574 -481 -411 -995 -673 -1532
-781 -253 -51 -446 -54 -695 -14 -309 51 -557 175 -760 378 -187 189 -299 403
-361 691 -20 89 -23 135 -23 305 0 180 3 213 27 330 21 96 109 398 121 412 0
0 64 8 141 17 884 104 1605 354 2250 781 791 523 1361 1132 1685 1800 169 348
251 657 267 1000 27 610 -223 1054 -731 1296 -200 95 -380 133 -636 132 -252
0 -466 -38 -758 -132 -1092 -355 -2251 -1248 -3148 -2426 -396 -520 -660 -976
-952 -1645 -259 -593 -391 -1024 -461 -1503 l-20 -138 -92 -132 c-225 -322
-376 -506 -603 -732 -456 -454 -863 -653 -1115 -544 -159 68 -195 249 -121
609 134 645 665 1759 1463 3065 519 850 785 1462 898 2065 30 165 38 461 14
602 -83 504 -430 810 -1015 895 -159 23 -462 23 -590 0 -413 -75 -792 -269
-1232 -632 -242 -200 -621 -592 -889 -920 -275 -336 -596 -793 -869 -1236 -55
-89 -100 -159 -100 -156 0 4 266 539 591 1190 l591 1182 387 390 c665 671
1062 1116 1418 1590 358 478 686 1034 842 1427 165 419 195 833 77 1067 -79
155 -291 321 -479 375 -60 18 -228 36 -307 34 -25 0 -85 -4 -133 -9z m7030
-4907 c50 -26 96 -80 112 -131 16 -54 14 -179 -5 -269 -100 -488 -530 -1226
-1093 -1877 -219 -253 -633 -652 -896 -864 -374 -301 -785 -535 -1213 -691
-98 -36 -102 -37 -96 -16 3 11 39 103 79 202 206 513 464 1027 718 1434 734
1176 1548 2032 2097 2208 96 31 99 31 180 28 53 -2 87 -9 117 -24z m14456 -84
c214 -101 311 -353 310 -813 0 -203 -9 -310 -49 -555 -79 -494 -317 -1285
-594 -1975 -40 -99 -95 -241 -122 -315 -70 -190 -219 -557 -358 -880 -548
-1276 -1045 -2141 -1505 -2618 -349 -363 -681 -506 -911 -392 -127 62 -201
207 -252 490 -24 135 -23 607 1 810 36 299 114 713 242 1295 228 1028 581
1967 1100 2920 517 951 1109 1669 1607 1951 151 85 249 114 378 111 79 -2 105
-7 153 -29z"/>
<path d="M6895 20609 c-1625 -91 -3052 -749 -4215 -1945 -1299 -1335 -1821
-2898 -1564 -4684 147 -1022 543 -2035 1154 -2950 405 -606 784 -985 1480
-1478 89 -63 183 -143 275 -232 348 -339 830 -692 1672 -1229 322 -205 303
-188 318 -281 10 -58 -21 -197 -60 -278 -61 -123 -192 -245 -341 -320 -34 -17
-110 -48 -169 -68 -85 -29 -111 -35 -125 -26 -14 8 -45 6 -126 -9 -145 -27
-350 -36 -440 -19 -232 42 -638 215 -1164 495 -524 280 -897 395 -1276 395
-220 0 -385 -35 -547 -116 -378 -190 -603 -566 -684 -1145 -26 -186 -23 -590
6 -804 88 -651 304 -1247 635 -1750 266 -404 668 -785 1157 -1097 116 -74 152
-104 322 -274 254 -252 510 -455 810 -641 823 -513 1838 -821 2932 -893 199
-13 722 -13 921 1 1187 78 2300 457 3299 1122 364 243 627 458 936 766 229
229 360 379 522 596 49 66 93 121 97 123 5 2 50 -28 102 -66 51 -38 149 -106
218 -152 97 -64 162 -119 290 -244 714 -695 1559 -1158 2574 -1411 550 -137
1079 -201 1741 -212 545 -9 1130 26 1621 97 116 16 388 117 585 216 844 423
1685 1296 2157 2239 142 285 337 792 542 1410 41 123 55 155 62 140 4 -11 33
-110 63 -220 280 -1012 606 -1800 937 -2268 214 -302 620 -765 1200 -1368 183
-192 206 -212 306 -272 60 -36 172 -97 248 -135 l139 -70 235 -247 c129 -136
254 -270 278 -296 67 -76 311 -218 542 -317 893 -383 1748 -210 2589 523 101
88 146 154 264 390 334 667 409 1310 247 2108 -83 412 -182 752 -392 1352
-132 376 -391 1126 -403 1165 -4 14 41 -40 100 -120 240 -322 446 -561 686
-795 270 -262 559 -481 687 -519 60 -18 66 -24 178 -148 209 -231 433 -433
666 -599 128 -92 184 -115 373 -156 100 -22 380 -24 470 -4 237 53 463 172
616 323 246 243 414 659 564 1392 l43 209 16 -59 c189 -676 453 -1158 861
-1570 217 -219 445 -389 695 -518 116 -61 118 -62 207 -171 346 -423 826 -743
1290 -860 242 -61 598 -59 845 4 109 28 250 93 713 326 447 226 708 367 808
439 285 204 518 521 618 842 46 150 39 139 111 153 149 30 323 74 455 117 134
43 149 50 238 119 468 355 792 799 966 1318 104 310 190 781 229 1247 6 74 13
155 16 179 l6 44 64 -122 c101 -193 193 -328 264 -385 212 -170 418 -265 643
-297 l83 -11 77 -152 c119 -236 202 -360 283 -428 130 -108 302 -197 460 -239
57 -15 123 -22 234 -26 133 -4 170 -2 260 17 190 39 342 115 509 256 48 39
110 97 139 128 29 31 55 56 58 56 2 0 4 -37 4 -82 0 -429 135 -944 346 -1322
264 -473 611 -785 1043 -940 l91 -32 68 -105 c95 -145 173 -239 302 -362 172
-165 365 -283 589 -361 243 -85 379 -92 943 -51 822 60 963 84 1223 209 385
185 668 518 862 1014 45 116 133 408 133 443 0 10 4 19 9 19 4 0 46 -41 92
-92 103 -112 279 -273 374 -340 78 -55 197 -118 323 -169 83 -33 84 -34 190
-159 141 -166 428 -453 522 -522 99 -73 143 -97 280 -156 372 -160 834 -267
1300 -303 196 -15 647 -6 830 16 702 83 1244 303 1839 743 l115 85 128 -64
129 -64 35 -65 c58 -104 128 -192 238 -297 167 -159 355 -285 656 -437 413
-209 811 -357 1130 -420 259 -51 372 -61 710 -61 276 1 333 4 459 23 675 106
1218 409 1572 879 227 300 381 681 491 1213 l14 65 131 -195 c316 -470 613
-842 879 -1100 210 -203 383 -331 605 -445 135 -70 136 -70 226 -175 410 -476
822 -752 1253 -840 427 -87 902 -18 1420 207 332 144 702 366 1068 642 425
320 713 625 894 946 354 627 323 1478 -88 2472 -87 211 -288 614 -422 848
-277 482 -571 919 -1055 1568 -126 169 -228 309 -226 311 2 2 81 59 174 127
466 337 860 635 1046 790 116 97 244 237 388 423 843 1086 1171 2617 960 4476
-76 665 -219 1272 -425 1800 -86 218 -272 592 -378 757 -192 300 -415 561
-690 806 -83 74 -108 103 -164 197 -254 421 -664 853 -1118 1178 -478 341
-1058 617 -1668 793 -1373 397 -3347 437 -5116 103 -921 -174 -1582 -488
-2057 -977 -281 -289 -477 -620 -606 -1022 -43 -135 -175 -664 -257 -1034 -33
-151 -63 -277 -66 -280 -3 -3 -10 3 -16 13 -55 99 -234 247 -392 324 -431 212
-946 244 -2186 136 -382 -33 -654 -61 -1430 -149 -360 -41 -767 -86 -905 -100
-137 -15 -315 -34 -395 -44 -80 -10 -145 -17 -145 -17 -2 4 -210 286 -253 344
-78 104 -208 231 -338 328 -96 72 -118 94 -147 147 -50 88 -150 238 -221 332
-34 44 -77 105 -97 135 -59 91 -157 208 -247 297 -318 313 -780 522 -1333 603
-395 58 -918 51 -1489 -20 -258 -33 -398 -73 -597 -174 -431 -217 -897 -700
-1307 -1357 -210 -337 -462 -813 -637 -1201 -46 -103 -86 -184 -90 -180 -3 4
-19 41 -34 82 -135 363 -377 826 -589 1128 -180 256 -424 530 -616 692 -60 51
-91 88 -155 189 -386 603 -838 1032 -1347 1276 -303 146 -568 207 -893 208
-275 0 -506 -38 -801 -134 -1112 -360 -2001 -1197 -2493 -2346 -135 -316 -214
-575 -321 -1052 -38 -173 -70 -317 -70 -320 -1 -15 -22 35 -74 174 -83 221
-200 490 -286 660 -231 455 -581 919 -915 1215 -98 87 -117 111 -230 280 -358
537 -758 927 -1275 1241 -69 42 -165 102 -215 133 -244 156 -547 264 -865 308
-138 19 -504 16 -660 -5 -481 -66 -919 -213 -1485 -497 -126 -63 -302 -156
-390 -205 -152 -85 -166 -96 -286 -215 -69 -69 -154 -164 -190 -212 -436 -588
-715 -1500 -863 -2818 -61 -535 -92 -964 -106 -1429 -5 -178 -11 -325 -13
-327 -1 -2 -30 32 -64 74 -98 125 -264 316 -423 487 -81 88 -200 228 -263 310
-285 370 -512 631 -807 925 -472 473 -901 795 -1368 1029 -498 249 -948 361
-1457 361 -379 0 -746 -63 -910 -157 -183 -105 -495 -322 -653 -454 l-53 -44
-92 89 c-51 49 -129 120 -173 158 -60 50 -93 88 -125 141 -273 462 -673 890
-1084 1159 -412 271 -862 410 -1325 411 -361 1 -652 -99 -973 -333 -277 -203
-692 -699 -777 -929 -65 -177 -157 -519 -224 -831 -108 -504 -193 -1081 -370
-2495 -65 -518 -65 -522 -85 -1020 -41 -1003 -57 -1588 -67 -2430 -6 -613 -8
-640 -65 -872 -91 -373 -268 -738 -476 -978 -38 -44 -90 -94 -116 -112 -93
-63 -231 -100 -408 -110 l-107 -6 -9 69 c-4 38 -8 245 -8 459 0 417 2 453 66
945 62 482 145 1011 309 1960 216 1248 318 1946 365 2480 27 314 18 862 -20
1234 l-15 139 -56 101 c-185 334 -440 614 -757 833 -26 18 -47 39 -47 48 0 23
-100 211 -171 321 -237 366 -588 679 -1002 894 -524 272 -1023 324 -1587 164
-373 -106 -791 -331 -1154 -622 l-58 -47 -37 45 c-111 136 -292 341 -407 460
-81 83 -183 204 -266 315 -522 698 -991 1151 -1478 1427 -882 500 -1935 730
-3055 667z m735 -259 c808 -55 1554 -272 2195 -638 481 -275 992 -789 1522
-1533 253 -354 388 -634 443 -919 23 -117 28 -302 10 -403 -52 -297 -195 -607
-462 -1003 -71 -106 -106 -167 -102 -177 8 -22 -138 -199 -291 -352 -360 -361
-721 -530 -1090 -511 -167 8 -384 44 -618 101 -178 44 -283 98 -397 202 -194
179 -313 472 -365 898 -27 223 -64 312 -174 418 -130 125 -300 185 -557 194
-220 8 -375 -19 -552 -95 -135 -59 -165 -82 -209 -159 -98 -176 -186 -421
-225 -633 -29 -155 -31 -449 -4 -590 77 -400 289 -737 646 -1026 41 -33 257
-192 480 -354 1228 -891 2165 -1601 2560 -1941 248 -213 637 -626 864 -919
579 -744 905 -1481 1001 -2260 8 -69 24 -307 35 -530 11 -223 24 -483 30 -579
33 -571 -18 -967 -189 -1481 -296 -886 -906 -1719 -1724 -2353 -802 -622
-1864 -1082 -2887 -1251 -1242 -205 -2558 -70 -3664 376 -826 332 -1556 876
-1936 1443 -273 408 -472 889 -575 1395 -148 726 -66 1376 220 1737 111 141
259 238 430 284 162 43 435 36 645 -16 241 -61 443 -146 839 -354 528 -279
905 -435 1172 -486 93 -17 282 -19 384 -4 39 6 122 12 185 13 105 2 126 6 236
43 433 147 680 382 748 715 20 98 21 256 1 333 -37 144 -146 314 -271 421
-172 148 -607 446 -1219 834 -794 504 -1340 907 -1661 1228 -595 592 -1169
1574 -1482 2532 -357 1095 -408 2235 -141 3195 291 1048 946 2014 1914 2822
693 578 1488 991 2320 1203 389 100 727 151 1205 183 114 8 580 6 710 -3z
m54485 -180 c1508 -73 2588 -370 3484 -957 779 -511 1268 -1132 1600 -2034
389 -1058 529 -2519 355 -3718 -127 -882 -433 -1656 -893 -2261 -121 -160
-291 -348 -382 -425 -111 -93 -388 -308 -594 -460 -221 -164 -695 -509 -722
-526 -13 -7 -23 -17 -23 -21 0 -4 116 -162 258 -350 762 -1014 1198 -1716
1485 -2393 240 -567 347 -1018 347 -1467 0 -354 -53 -605 -185 -868 -202 -402
-563 -767 -1166 -1177 -978 -665 -1826 -835 -2492 -502 -320 161 -593 403
-942 839 -599 748 -1083 1595 -1420 2491 -67 176 -177 507 -321 966 l-79 252
-7 -207 c-4 -114 -12 -405 -17 -647 -6 -242 -16 -503 -21 -580 -83 -1154 -397
-1849 -1022 -2265 -397 -264 -846 -395 -1398 -407 -557 -12 -949 75 -1590 354
-659 287 -1011 582 -1169 979 l-13 32 93 88 c461 444 803 1018 904 1519 98
483 30 905 -194 1202 -170 226 -450 402 -746 468 -44 10 -83 21 -87 24 -9 8
59 653 150 1434 l7 58 90 38 c628 263 1098 755 1294 1356 74 226 85 299 86
565 0 223 -2 240 -27 343 -81 319 -251 570 -527 775 -100 75 -277 171 -401
218 -41 15 -78 30 -83 34 -12 10 162 1181 281 1892 41 244 52 293 74 326 48
72 119 223 154 329 47 139 73 279 83 443 9 142 8 182 -10 375 -11 119 -11 121
26 305 104 519 302 1354 371 1559 124 374 312 671 596 947 309 299 684 512
1193 677 562 183 1548 333 2475 376 249 12 888 12 1125 1z m-29436 -376 c303
-35 579 -135 842 -306 46 -30 138 -88 203 -128 327 -201 667 -504 921 -820
376 -468 626 -966 925 -1845 181 -533 303 -951 504 -1734 l156 -604 -111 -531
c-565 -2710 -736 -3883 -716 -4901 8 -385 38 -653 102 -906 65 -256 203 -665
393 -1169 205 -541 215 -566 294 -670 408 -543 878 -853 1443 -951 103 -18
171 -22 327 -23 229 -1 213 14 142 -133 -99 -207 -262 -409 -438 -543 -52 -39
-161 -109 -243 -156 -173 -98 -1013 -523 -1154 -583 -233 -99 -572 -125 -859
-65 -544 113 -1129 559 -1485 1134 -214 347 -382 787 -461 1210 -56 304 -137
927 -214 1655 -66 621 -69 652 -96 840 -75 535 -190 1005 -328 1347 -62 155
-295 638 -308 638 -4 0 -8 -11 -8 -25 0 -76 -211 -2412 -246 -2725 -133 -1185
-335 -2003 -586 -2367 -147 -214 -379 -366 -653 -430 -156 -35 -393 -21 -581
37 -112 34 -360 221 -606 459 -733 705 -1528 1987 -2263 3646 -169 383 -228
511 -237 520 -6 7 -8 -24 -4 -90 4 -55 11 -221 16 -370 20 -516 56 -830 141
-1205 56 -244 231 -783 577 -1770 190 -545 262 -761 320 -965 174 -609 242
-1028 229 -1410 -15 -429 -117 -817 -321 -1221 -114 -226 -140 -264 -253 -362
-388 -338 -787 -549 -1198 -633 -128 -26 -458 -37 -590 -20 -279 37 -537 120
-814 261 -238 122 -246 128 -492 387 -718 757 -1047 1146 -1240 1464 -321 532
-625 1358 -904 2464 -247 977 -578 2631 -1009 5045 -247 1381 -273 1548 -297
1869 -15 208 -7 677 16 861 77 645 270 1222 582 1735 175 289 334 488 602 755
262 261 517 461 821 645 113 68 136 77 235 100 202 45 303 57 538 62 251 6
372 -3 581 -43 522 -101 1074 -372 1586 -779 620 -494 1234 -1198 1835 -2105
203 -307 341 -531 601 -977 126 -216 230 -390 232 -388 2 1 -17 169 -42 372
-63 511 -70 614 -70 1048 0 628 58 1379 160 2085 175 1215 495 2055 945 2485
70 66 113 96 249 171 245 135 318 173 507 262 695 327 1284 457 1802 396z
m7761 -164 c642 -67 1256 -490 1768 -1220 249 -355 487 -840 657 -1340 204
-601 349 -1243 555 -2470 23 -135 44 -252 47 -260 3 -8 73 188 157 435 169
498 239 690 380 1040 693 1714 1481 2808 2217 3076 154 56 317 83 724 121 191
18 785 17 930 -1 335 -41 596 -113 845 -232 293 -141 504 -322 701 -604 41
-58 105 -149 142 -203 217 -308 376 -648 482 -1029 l36 -132 -83 -84 c-115
-117 -205 -245 -296 -427 -218 -432 -312 -868 -486 -2255 -209 -1660 -300
-3110 -282 -4485 14 -1049 53 -1746 137 -2435 l21 -170 -81 -535 c-105 -696
-137 -852 -232 -1126 -51 -150 -169 -393 -244 -504 -178 -264 -392 -444 -657
-554 -154 -64 -294 -90 -738 -136 -218 -23 -681 -53 -830 -54 -140 -1 -178 3
-253 22 -258 65 -448 161 -643 325 -121 101 -225 221 -336 387 -230 344 -366
735 -409 1178 -15 153 -6 561 16 717 41 302 188 871 455 1775 193 649 261 920
320 1275 42 252 60 454 61 700 1 201 -15 565 -27 624 -4 20 -28 -19 -116 -190
-159 -308 -833 -1602 -946 -1814 -307 -581 -638 -1122 -892 -1460 -316 -421
-543 -612 -817 -687 -108 -30 -373 -32 -478 -4 -189 51 -401 176 -481 285
-156 215 -350 642 -473 1040 -274 888 -417 2003 -457 3571 -4 140 -9 273 -13
295 l-6 40 -32 -85 c-260 -704 -294 -806 -362 -1090 -101 -420 -121 -619 -201
-2070 -33 -590 -48 -776 -86 -1057 -98 -732 -249 -1152 -567 -1573 -136 -181
-330 -374 -522 -520 -74 -56 -109 -75 -195 -105 -224 -78 -550 -146 -770 -160
-117 -7 -332 9 -462 35 -272 56 -553 192 -787 383 -181 147 -423 424 -485 552
-67 139 -358 920 -464 1245 -150 460 -191 673 -214 1123 -28 547 42 1365 198
2317 129 789 419 2246 770 3870 179 827 333 1519 370 1660 161 616 442 1181
822 1655 118 147 421 452 557 561 661 527 1463 825 2055 764z m-20335 -1060
c404 -38 790 -190 1144 -452 435 -321 789 -764 1074 -1345 l100 -204 -42 -47
c-199 -226 -312 -371 -436 -560 -402 -615 -633 -1306 -706 -2112 -28 -305 -9
-831 42 -1185 49 -341 465 -2653 658 -3657 l49 -257 -73 -298 c-213 -867 -473
-1709 -780 -2523 -240 -636 -522 -1116 -947 -1610 -541 -629 -1165 -1081
-1778 -1290 -269 -92 -1364 -163 -2005 -131 -667 34 -1214 123 -1769 291
-1026 309 -1928 903 -2553 1681 -51 64 -93 119 -93 121 0 3 25 47 55 98 244
405 435 894 525 1340 73 367 94 684 70 1075 -5 88 -19 351 -30 585 -11 234
-27 486 -36 560 -99 870 -492 1732 -1159 2545 -140 171 -232 273 -441 491
l-183 191 15 214 c7 118 18 291 24 384 27 474 134 1404 214 1870 32 187 98
542 129 696 l34 166 85 99 c91 107 163 198 247 312 43 58 51 75 41 87 -9 11
-2 28 38 87 231 345 392 712 444 1011 17 100 19 150 15 277 -2 85 -8 162 -11
171 -14 32 323 319 559 478 458 308 906 464 1330 464 349 0 669 -99 1013 -314
366 -227 650 -521 837 -863 45 -83 46 -86 60 -233 39 -413 43 -892 10 -1233
-51 -528 -159 -1251 -360 -2410 -239 -1382 -348 -2144 -377 -2641 -18 -316 7
-826 58 -1154 40 -261 257 -526 646 -792 115 -79 120 -80 393 -89 209 -8 317
4 483 52 167 49 274 117 386 248 289 338 487 785 580 1311 24 136 25 156 30
780 7 794 30 1614 72 2535 13 310 20 381 95 965 233 1836 335 2420 524 3001
48 149 58 170 130 275 372 543 795 866 1215 928 41 6 86 13 100 15 52 7 148 6
255 -4z m34800 -1400 c845 -63 1175 -368 1175 -1088 0 -421 -111 -722 -365
-990 -259 -275 -604 -437 -1080 -508 -103 -16 -831 -38 -891 -28 -30 6 -31 4
-67 -78 -102 -237 -124 -383 -167 -1113 -11 -181 -25 -382 -31 -446 -11 -110
-10 -120 11 -183 54 -163 189 -274 401 -331 l92 -24 41 33 c295 240 728 369
1185 353 412 -14 773 -171 1037 -450 206 -218 293 -464 282 -796 -24 -681
-518 -1341 -1221 -1629 -274 -112 -514 -161 -792 -162 -171 0 -272 12 -460 54
-80 18 -145 31 -145 28 0 -2 -37 -277 -81 -611 -108 -801 -109 -879 -16 -1054
114 -217 406 -324 778 -287 225 22 367 24 477 6 375 -59 671 -264 808 -560
119 -258 117 -663 -6 -1038 -192 -585 -702 -1203 -1350 -1633 -690 -459 -1338
-642 -2205 -622 -435 10 -785 66 -1150 184 -266 86 -437 163 -555 251 -151
112 -437 411 -679 709 -130 160 -216 339 -329 683 -179 548 -301 1346 -362
2375 -26 450 -32 651 -37 1415 -7 993 7 1479 67 2320 84 1166 292 2885 425
3505 158 735 434 1167 831 1303 110 38 254 61 604 97 190 20 599 65 910 100
1729 197 2413 248 2865 215z m-46546 -1795 c105 -269 298 -495 521 -609 115
-59 177 -80 369 -124 l163 -38 33 -90 c46 -130 77 -193 141 -292 103 -159 258
-286 442 -363 88 -36 313 -90 502 -120 177 -28 164 -23 157 -67 -28 -174 -104
-961 -131 -1360 -7 -111 -16 -205 -19 -208 -3 -3 -54 34 -114 84 -296 244
-1148 890 -1943 1471 -228 167 -452 331 -496 363 -90 67 -89 63 -115 238 -17
114 -6 401 21 525 31 145 92 322 160 462 l59 122 92 45 c50 25 99 46 108 46
12 0 27 -24 50 -85z m47191 -1924 c0 -30 -63 -437 -68 -443 -4 -3 -34 -1 -67
5 -79 15 -458 13 -565 -2 -47 -6 -106 -14 -131 -18 l-47 -6 14 89 c18 114 49
236 77 310 l23 59 340 5 c186 3 358 6 382 8 23 1 42 -2 42 -7z"/>
<path d="M61450 15551 c-148 -43 -575 -204 -624 -236 -98 -64 -149 -368 -226
-1330 -54 -682 -114 -1366 -176 -2008 -14 -148 -23 -271 -21 -274 3 -2 89 16
192 41 720 176 1347 505 1765 925 158 159 248 280 329 446 103 208 141 372
141 606 0 161 -11 252 -50 406 -89 351 -328 770 -660 1153 -156 181 -193 215
-262 239 -191 69 -263 74 -408 32z m960 -1171 c78 -153 143 -375 160 -548 48
-473 -213 -906 -775 -1288 -75 -51 -111 -70 -113 -61 -4 22 75 987 99 1191 34
302 77 505 116 548 15 17 442 190 485 197 4 0 17 -17 28 -39z"/>
</g>
</svg>
